<?xml version="1.0" encoding="UTF-8"?><svg xmlns="http://www.w3.org/2000/svg" width="860" height="910" version="1.0" shape-rendering="geometricPrecision"><defs><style type="text/css">@font-face {
  font-family: sans-serif;
}</style><filter id="shadowBlur" x="0" y="0" width="200%" height="200%"><feOffset in="SourceGraphic" dx="3.0003002" dy="3.0003002" result="offOut"></feOffset><feGaussianBlur in="offOut" stdDeviation="3"></feGaussianBlur></filter></defs><g stroke-width="1" stroke-linecap="square" stroke-linejoin="round"><rect x="0" y="0" width="860" height="910" style="fill: #ffffff"></rect><path stroke="#969696" fill="#969696" filter="url(#shadowBlur)" d="M215.0 721.0 L555.0 721.0 L555.0 777.0 Q441.0 770.0 385.0 777.0 Q329.0 784.0 215.0 777.0 z"></path><path stroke="#969696" fill="#969696" filter="url(#shadowBlur)" d="M215.0 581.0 L455.0 581.0 L455.0 637.0 Q375.0 630.0 335.0 637.0 Q295.0 644.0 215.0 637.0 z"></path><path stroke="#969696" fill="#969696" filter="url(#shadowBlur)" d="M215.0 203.0 L445.0 203.0 L445.0 259.0 Q368.0 252.0 330.0 259.0 Q292.0 266.0 215.0 259.0 z"></path><path stroke="#969696" fill="#969696" filter="url(#shadowBlur)" d="M215.0 329.0 L445.0 329.0 L445.0 385.0 Q368.0 378.0 330.0 385.0 Q292.0 392.0 215.0 385.0 z"></path><path stroke="#969696" fill="#969696" filter="url(#shadowBlur)" d="M215.0 455.0 L445.0 455.0 L445.0 511.0 Q368.0 504.0 330.0 511.0 Q292.0 518.0 215.0 511.0 z"></path><path stroke="#969696" fill="#969696" filter="url(#shadowBlur)" d="M25.0 721.0 L155.0 721.0 L155.0 777.0 L25.0 777.0 z"></path><path stroke="#969696" fill="#969696" filter="url(#shadowBlur)" d="M215.0 819.0 L345.0 819.0 L345.0 875.0 Q301.0 868.0 280.0 875.0 Q259.0 882.0 215.0 875.0 z"></path><path stroke="#969696" fill="#969696" filter="url(#shadowBlur)" d="M25.0 42.0 Q25.0 35.0 30.0 35.0 L140.0 35.0 Q145.0 35.0 145.0 42.0 L145.0 84.0 L145.0 84.0 Q145.0 91.0 140.0 91.0 L30.0 91.0 L30.0 91.0 Q25.0 91.0 25.0 84.0 L25.0 42.0 z"></path><path stroke="#969696" fill="#969696" filter="url(#shadowBlur)" d="M25.0 203.0 L140.0 203.0 Q145.0 203.0 145.0 210.0 L145.0 259.0 L145.0 259.0 L30.0 259.0 Q25.0 259.0 25.0 252.0 L25.0 203.0 z"></path><path stroke="#969696" fill="#969696" filter="url(#shadowBlur)" d="M25.0 329.0 L140.0 329.0 Q145.0 329.0 145.0 336.0 L145.0 385.0 L145.0 385.0 L30.0 385.0 Q25.0 385.0 25.0 378.0 L25.0 329.0 z"></path><path stroke="#969696" fill="#969696" filter="url(#shadowBlur)" d="M25.0 455.0 L140.0 455.0 Q145.0 455.0 145.0 462.0 L145.0 511.0 L145.0 511.0 L30.0 511.0 Q25.0 511.0 25.0 504.0 L25.0 455.0 z"></path><path stroke="#969696" fill="#969696" filter="url(#shadowBlur)" d="M25.0 581.0 L145.0 581.0 L145.0 637.0 L25.0 637.0 z"></path><path stroke="#969696" fill="#969696" filter="url(#shadowBlur)" d="M25.0 819.0 L145.0 819.0 L145.0 875.0 L25.0 875.0 z"></path><path stroke="#000000" stroke-width="1.0" stroke-linecap="round" stroke-linejoin="round" fill="#ffaa77" d="M215.0 721.0 L555.0 721.0 L555.0 777.0 Q441.0 770.0 385.0 777.0 Q329.0 784.0 215.0 777.0 z"></path><path stroke="#000000" stroke-width="1.0" stroke-linecap="round" stroke-linejoin="round" fill="#ffaa77" d="M215.0 581.0 L455.0 581.0 L455.0 637.0 Q375.0 630.0 335.0 637.0 Q295.0 644.0 215.0 637.0 z"></path><path stroke="#000000" stroke-width="1.0" stroke-linecap="round" stroke-linejoin="round" fill="#ffaa77" d="M215.0 203.0 L445.0 203.0 L445.0 259.0 Q368.0 252.0 330.0 259.0 Q292.0 266.0 215.0 259.0 z"></path><path stroke="#000000" stroke-width="1.0" stroke-linecap="round" stroke-linejoin="round" fill="#ffaa77" d="M215.0 329.0 L445.0 329.0 L445.0 385.0 Q368.0 378.0 330.0 385.0 Q292.0 392.0 215.0 385.0 z"></path><path stroke="#000000" stroke-width="1.0" stroke-linecap="round" stroke-linejoin="round" fill="#ffaa77" d="M215.0 455.0 L445.0 455.0 L445.0 511.0 Q368.0 504.0 330.0 511.0 Q292.0 518.0 215.0 511.0 z"></path><path stroke="#000000" stroke-width="1.0" stroke-linecap="round" stroke-linejoin="round" fill="#99dd99" d="M25.0 721.0 L155.0 721.0 L155.0 777.0 L25.0 777.0 z"></path><path stroke="#000000" stroke-width="1.0" stroke-linecap="round" stroke-linejoin="round" fill="#ffaa77" d="M215.0 819.0 L345.0 819.0 L345.0 875.0 Q301.0 868.0 280.0 875.0 Q259.0 882.0 215.0 875.0 z"></path><path stroke="#000000" stroke-width="1.0" stroke-linecap="round" stroke-linejoin="round" fill="#cccccc" d="M25.0 42.0 Q25.0 35.0 30.0 35.0 L140.0 35.0 Q145.0 35.0 145.0 42.0 L145.0 84.0 L145.0 84.0 Q145.0 91.0 140.0 91.0 L30.0 91.0 L30.0 91.0 Q25.0 91.0 25.0 84.0 L25.0 42.0 z"></path><path stroke="#000000" stroke-width="1.0" stroke-linecap="round" stroke-linejoin="round" fill="#ccddff" d="M25.0 203.0 L140.0 203.0 Q145.0 203.0 145.0 210.0 L145.0 259.0 L145.0 259.0 L30.0 259.0 Q25.0 259.0 25.0 252.0 L25.0 203.0 z"></path><path stroke="#000000" stroke-width="1.0" stroke-linecap="round" stroke-linejoin="round" fill="#ccddff" d="M25.0 329.0 L140.0 329.0 Q145.0 329.0 145.0 336.0 L145.0 385.0 L145.0 385.0 L30.0 385.0 Q25.0 385.0 25.0 378.0 L25.0 329.0 z"></path><path stroke="#000000" stroke-width="1.0" stroke-linecap="round" stroke-linejoin="round" fill="#ccddff" d="M25.0 455.0 L140.0 455.0 Q145.0 455.0 145.0 462.0 L145.0 511.0 L145.0 511.0 L30.0 511.0 Q25.0 511.0 25.0 504.0 L25.0 455.0 z"></path><path stroke="#000000" stroke-width="1.0" stroke-linecap="round" stroke-linejoin="round" fill="#99dd99" d="M25.0 581.0 L145.0 581.0 L145.0 637.0 L25.0 637.0 z"></path><path stroke="#000000" stroke-width="1.0" stroke-linecap="round" stroke-linejoin="round" fill="#ffaaaa" d="M25.0 819.0 L145.0 819.0 L145.0 875.0 L25.0 875.0 z"></path><path stroke="none" stroke-width="1.0" stroke-linecap="round" stroke-linejoin="round" fill="#000000" d="M80.0 182.0 L85.0 196.0 L90.0 182.0 z"></path><path stroke="none" stroke-width="1.0" stroke-linecap="round" stroke-linejoin="round" fill="#000000" d="M160.0 224.0 L150.0 231.0 L160.0 238.0 z"></path><path stroke="none" stroke-width="1.0" stroke-linecap="round" stroke-linejoin="round" fill="#000000" d="M80.0 308.0 L85.0 322.0 L90.0 308.0 z"></path><path stroke="none" stroke-width="1.0" stroke-linecap="round" stroke-linejoin="round" fill="#000000" d="M160.0 350.0 L150.0 357.0 L160.0 364.0 z"></path><path stroke="none" stroke-width="1.0" stroke-linecap="round" stroke-linejoin="round" fill="#000000" d="M80.0 434.0 L85.0 448.0 L90.0 434.0 z"></path><path stroke="none" stroke-width="1.0" stroke-linecap="round" stroke-linejoin="round" fill="#000000" d="M160.0 476.0 L150.0 483.0 L160.0 490.0 z"></path><path stroke="none" stroke-width="1.0" stroke-linecap="round" stroke-linejoin="round" fill="#000000" d="M80.0 560.0 L85.0 574.0 L90.0 560.0 z"></path><path stroke="none" stroke-width="1.0" stroke-linecap="round" stroke-linejoin="round" fill="#000000" d="M160.0 602.0 L150.0 609.0 L160.0 616.0 z"></path><path stroke="none" stroke-width="1.0" stroke-linecap="round" stroke-linejoin="round" fill="#000000" d="M80.0 700.0 L85.0 714.0 L90.0 700.0 z"></path><path stroke="none" stroke-width="1.0" stroke-linecap="round" stroke-linejoin="round" fill="#000000" d="M170.0 742.0 L160.0 749.0 L170.0 756.0 z"></path><path stroke="none" stroke-width="1.0" stroke-linecap="round" stroke-linejoin="round" fill="#000000" d="M80.0 798.0 L85.0 812.0 L90.0 798.0 z"></path><path stroke="none" stroke-width="1.0" stroke-linecap="round" stroke-linejoin="round" fill="#000000" d="M160.0 840.0 L150.0 847.0 L160.0 854.0 z"></path><path stroke="#000000" stroke-width="1.0" stroke-linecap="round" stroke-linejoin="round" fill="none" d="M470.0 553.0 L479.0 553.0 "></path><path stroke="#000000" stroke-width="1.0" stroke-linecap="round" stroke-linejoin="round" fill="none" d="M85.0 777.0 L85.0 805.0 "></path><path stroke="#000000" stroke-width="1.0" stroke-linecap="round" stroke-linejoin="round" fill="none" d="M85.0 91.0 L85.0 189.0 "></path><path stroke="#000000" stroke-width="1.0" stroke-linecap="round" stroke-linejoin="round" fill="none" d="M85.0 259.0 L85.0 315.0 "></path><path stroke="#000000" stroke-width="1.0" stroke-dasharray="5.0,5.0" stroke-miterlimit="0" stroke-linecap="butt" stroke-linejoin="round" fill="none" d="M155.0 231.0 L215.0 231.0 "></path><path stroke="#000000" stroke-width="1.0" stroke-linecap="round" stroke-linejoin="round" fill="none" d="M85.0 385.0 L85.0 441.0 "></path><path stroke="#000000" stroke-width="1.0" stroke-dasharray="5.0,5.0" stroke-miterlimit="0" stroke-linecap="butt" stroke-linejoin="round" fill="none" d="M155.0 357.0 L215.0 357.0 "></path><path stroke="#000000" stroke-width="1.0" stroke-linecap="round" stroke-linejoin="round" fill="none" d="M85.0 511.0 L85.0 567.0 "></path><path stroke="#000000" stroke-width="1.0" stroke-dasharray="5.0,5.0" stroke-miterlimit="0" stroke-linecap="butt" stroke-linejoin="round" fill="none" d="M155.0 483.0 L215.0 483.0 "></path><path stroke="#000000" stroke-width="1.0" stroke-linecap="round" stroke-linejoin="round" fill="none" d="M85.0 637.0 L85.0 707.0 "></path><path stroke="#000000" stroke-width="1.0" stroke-dasharray="5.0,5.0" stroke-miterlimit="0" stroke-linecap="butt" stroke-linejoin="round" fill="none" d="M155.0 609.0 L215.0 609.0 "></path><path stroke="#000000" stroke-width="1.0" stroke-dasharray="5.0,5.0" stroke-miterlimit="0" stroke-linecap="butt" stroke-linejoin="round" fill="none" d="M165.0 749.0 L215.0 749.0 "></path><path stroke="#000000" stroke-width="1.0" stroke-dasharray="5.0,5.0" stroke-miterlimit="0" stroke-linecap="butt" stroke-linejoin="round" fill="none" d="M155.0 847.0 L215.0 847.0 "></path><text x="50" y="68" font-family="sans-serif" font-size="15" stroke="none" fill="#000000"><![CDATA[BootROM]]></text><text x="100" y="125" font-family="sans-serif" font-size="16" stroke="none" fill="#000000"><![CDATA[Select boot source]]></text><text x="100" y="139" font-family="sans-serif" font-size="16" stroke="none" fill="#000000"><![CDATA[٭ UART ‑ Load a limited size binary into the on‑chip RAM and execute it]]></text><text x="190" y="153" font-family="sans-serif" font-size="16" stroke="none" fill="#000000"><![CDATA[(for upgrading firmware)]]></text><text x="100" y="167" font-family="sans-serif" font-size="16" stroke="none" fill="#000000"><![CDATA[٭ QSPI ‑ Automatically load the 32K Bootloader from 0x0 (NOR Flash)]]></text><text x="190" y="181" font-family="sans-serif" font-size="16" stroke="none" fill="#000000"><![CDATA[to 0x18000000 (RAM); jump to it for execution]]></text><text x="35" y="237" font-family="sans-serif" font-size="16" stroke="none" fill="#000000"><![CDATA[BootLoader]]></text><text x="254" y="237" font-family="sans-serif" font-size="16" stroke="none" fill="#000000"><![CDATA[bootloader‑٭.bin.out]]></text><text x="100" y="293" font-family="sans-serif" font-size="16" stroke="none" fill="#000000"><![CDATA[Read DDRInit from 0x10000 (NOR Flash) to 0x18080000 (RAM);]]></text><text x="100" y="307" font-family="sans-serif" font-size="16" stroke="none" fill="#000000"><![CDATA[jump to it for execution]]></text><text x="55" y="363" font-family="sans-serif" font-size="16" stroke="none" fill="#000000"><![CDATA[DDRInit]]></text><text x="256" y="363" font-family="sans-serif" font-size="16" stroke="none" fill="#000000"><![CDATA[ddrinit‑٭.bin.out]]></text><text x="100" y="419" font-family="sans-serif" font-size="16" stroke="none" fill="#000000"><![CDATA[Initialize DDR; read fw_payload (OpenSBI + Uboot) from 0x40000 (NOR Flash)]]></text><text x="160" y="433" font-family="sans-serif" font-size="16" stroke="none" fill="#000000"><![CDATA[to 0x80000000 (DDR); jump to it to execute the OpenSBI]]></text><text x="51" y="489" font-family="sans-serif" font-size="16" stroke="none" fill="#000000"><![CDATA[OpenSBI]]></text><text x="248" y="489" font-family="sans-serif" font-size="16" stroke="none" fill="#000000"><![CDATA[dfw_payload.bin.out]]></text><text x="100" y="545" font-family="sans-serif" font-size="16" stroke="none" fill="#000000"><![CDATA[Provide basic system calls for Linux; switch the mode from M to S;]]></text><text x="100" y="559" font-family="sans-serif" font-size="16" stroke="none" fill="#000000"><![CDATA[jump to 0x80020000 (DDR) to execute U Boot]]></text><text x="54" y="615" font-family="sans-serif" font-size="16" stroke="none" fill="#000000"><![CDATA[U‑Boot]]></text><text x="248" y="615" font-family="sans-serif" font-size="16" stroke="none" fill="#000000"><![CDATA[u‑boot.bin + u‑boot.dtb]]></text><text x="100" y="671" font-family="sans-serif" font-size="16" stroke="none" fill="#000000"><![CDATA[Works in S mode; contains basic file system and peripheral drivers]]></text><text x="100" y="685" font-family="sans-serif" font-size="16" stroke="none" fill="#000000"><![CDATA[(GMAC, UART, QSPI, USB, SDIO, etc.); load the kernel image through]]></text><text x="100" y="699" font-family="sans-serif" font-size="16" stroke="none" fill="#000000"><![CDATA[ETH, UART, QSPI, SDIO or USB]]></text><text x="42" y="755" font-family="sans-serif" font-size="16" stroke="none" fill="#000000"><![CDATA[Linux Kernel]]></text><text x="265" y="755" font-family="sans-serif" font-size="16" stroke="none" fill="#000000"><![CDATA[jh7100‑starfive‑visionfive‑v1.dtb]]></text><text x="52" y="853" font-family="sans-serif" font-size="16" stroke="none" fill="#000000"><![CDATA[Initramfs]]></text><text x="238" y="853" font-family="sans-serif" font-size="16" stroke="none" fill="#000000"><![CDATA[grub.cfg]]></text></g></svg>